# xmcd
#
# Track frame offsets: 
#        150
#        22493
#        36837
#        55143
#        71249
#        93889
#        122615
#        136476
#        170072
#        190216
#        207304
#        220702
#        242288
#        257887
#
# Disc length: 3789 seconds
#
# Revision: 0
# Processed by: cddbd v1.5.2PL0 Copyright (c) Steve Scherf et al.
# Submitted via: ExactAudioCopy v1.0b1
#
DISCID=d20ecb0e
DTITLE=Jeff Bridges and the Abiders - Live
DYEAR=2014
DGENRE=Country
TTITLE0=Blue Car
TTITLE1=I Don't Know
TTITLE2=What a Little Love Can Do
TTITLE3=Maybe I Missed the Point
TTITLE4=Exceptions to the Rule
TTITLE5=She Lay Her Whips Down
TTITLE6=Lookin' Out My Back Door
TTITLE7=Slow Boat
TTITLE8=Van Gogh in Hollywood
TTITLE9=To Live is to Fly
TTITLE10=Fallin' and Flyin'
TTITLE11=Never Let Go of Your Hand
TTITLE12=So You Want to be a Rock and Roll Star
TTITLE13=Somebody Else
EXTD=
EXTT0=
EXTT1=
EXTT2=
EXTT3=
EXTT4=
EXTT5=
EXTT6=
EXTT7=
EXTT8=
EXTT9=
EXTT10=
EXTT11=
EXTT12=
EXTT13=
PLAYORDER=
